<svg xmlns="http://www.w3.org/2000/svg" viewBox="0 0 1220 320" role="img" aria-labelledby="title desc">
<title id="title">Montuá Presentes Personalizados</title>
<desc id="desc">Logotipo Montuá com monograma M botânico em terracota</desc>
<defs><linearGradient id="terracotta" x1="0" y1="0" x2="1" y2="1"><stop offset="0" stop-color="#D87955"/><stop offset="1" stop-color="#A9472F"/></linearGradient></defs>
<g transform="translate(12 10) scale(.55)">
<path fill="url(#terracotta)" d="M64 420V92h76l118 192L376 92h72v328h-78V215L270 374h-28L142 216v204H64Z"/>
<path fill="url(#terracotta)" d="M74 318c60-17 99-52 116-105-6 74-38 125-96 153 54 1 102-18 145-58-26 69-81 110-165 121 40-34 53-71 38-111-13 7-26 7-38 0Z"/>
<path fill="url(#terracotta)" d="M91 243c36-12 62-39 77-79 3 48-13 88-49 118-9-12-18-25-28-39Z"/>
</g>
<text x="310" y="178" fill="#1C1917" font-size="124" font-family="Georgia, 'Times New Roman', serif" letter-spacing="4">MONTUÁ</text>
<line x1="315" y1="232" x2="405" y2="232" stroke="#B65B3F" stroke-width="3"/>
<text x="430" y="244" fill="#B65B3F" font-size="31" font-family="Arial, Helvetica, sans-serif" letter-spacing="11">PRESENTES PERSONALIZADOS</text>
<line x1="1066" y1="232" x2="1160" y2="232" stroke="#B65B3F" stroke-width="3"/>
</svg>